<svg width="60" height="60" viewBox="0 0 43 43" fill="none" xmlns="http://www.w3.org/2000/svg">
<path d="M43 2L32.258 20.6215L30.1032 24.3523L21.4839 39.2431L12.8968 24.3523L10.742 20.6215L0 2H4.27749L12.8968 16.8908L15.0516 20.6215L21.4839 31.7816L27.9484 20.6215L30.1032 16.8908L38.6903 2H43Z" fill="#383838"/>
<path d="M10.742 28.083L4.27749 39.2431H0L8.58714 24.3523L10.742 28.083Z" fill="#00EB1F"/>
<path d="M27.9483 13.1601L25.7935 16.8908L21.4838 9.46148L17.2063 16.8908L15.0515 13.1601L21.4838 2L27.9483 13.1601Z" fill="#00EB1F"/>
<path d="M42.9998 39.2431H38.6901L32.2578 28.083L34.3805 24.3523L42.9998 39.2431Z" fill="#00EB1F"/>
</svg>
